<?xml version="1.0" encoding="UTF-8"?>
<svg xmlns="http://www.w3.org/2000/svg" xmlns:xlink="http://www.w3.org/1999/xlink" width="32px" height="32px" viewBox="0 0 32 32" version="1.1">
<g id="surface1">
<path style=" stroke:none;fill-rule:nonzero;fill:rgb(51.372552%,32.941177%,26.666668%);fill-opacity:1;" d="M 13.070312 29.667969 C 13.371094 29.320312 14.285156 28.195312 14.652344 27.113281 C 14.890625 26.410156 15.078125 25.675781 15.214844 24.925781 C 15.71875 22.183594 15.847656 19.171875 15.625 15.449219 C 15.605469 15.105469 15.570312 14.769531 15.535156 14.480469 L 15.523438 14.367188 C 15.519531 14.34375 15.515625 14.320312 15.515625 14.296875 L 15.511719 14.289062 C 15.511719 14.269531 15.507812 14.246094 15.503906 14.222656 C 15.492188 14.113281 15.496094 14 15.539062 13.894531 C 15.636719 13.644531 15.875 13.492188 16.125 13.492188 C 16.136719 13.492188 16.148438 13.492188 16.160156 13.492188 C 16.457031 13.507812 16.703125 13.734375 16.75 14.027344 L 16.804688 14.355469 C 16.878906 14.828125 16.953125 15.296875 17.03125 15.765625 C 17.316406 17.53125 17.585938 19.203125 17.808594 20.90625 C 18.113281 23.253906 18.132812 25.296875 17.867188 27.160156 C 17.742188 28.015625 17.613281 28.964844 16.984375 29.644531 C 16.710938 29.941406 16.175781 29.941406 16.011719 29.941406 C 15.371094 29.941406 14.679688 29.921875 13.777344 29.878906 C 13.5625 29.867188 13.347656 29.835938 13.121094 29.800781 C 13.058594 29.789062 13.03125 29.714844 13.070312 29.667969 Z M 13.070312 29.667969 "/>
<path style=" stroke:none;fill-rule:nonzero;fill:rgb(47.058824%,75.294119%,26.274511%);fill-opacity:1;" d="M 8.222656 11.132812 C 8.421875 10.839844 8.660156 10.574219 8.980469 10.175781 C 8.441406 10.214844 8.039062 10.238281 7.546875 10.269531 C 7.890625 9.484375 8.53125 9.085938 9.128906 8.691406 C 10.871094 7.53125 12.628906 7.359375 14.367188 8.597656 C 14.433594 8.644531 14.519531 8.570312 14.480469 8.5 C 13.992188 7.578125 13.25 6.949219 12.273438 6.617188 C 11.519531 6.359375 9.839844 6.542969 9.480469 6.5625 C 9.445312 6.566406 9.421875 6.539062 9.425781 6.507812 C 9.4375 6.394531 9.9375 5.738281 10.175781 5.527344 C 10.773438 4.992188 11.457031 4.636719 12.410156 4.609375 C 12.214844 4.371094 12.121094 4.199219 11.976562 4.097656 C 11.828125 3.992188 11.433594 3.75 11.253906 3.617188 C 11.214844 3.585938 11.226562 3.523438 11.273438 3.511719 C 11.582031 3.425781 12.464844 3.230469 12.847656 3.289062 C 13.550781 3.402344 14.1875 3.984375 14.597656 4.566406 C 14.871094 4.957031 15.285156 6.3125 15.363281 6.523438 C 15.382812 6.578125 15.457031 6.574219 15.476562 6.523438 C 15.742188 5.714844 15.941406 5 16.230469 4.324219 C 16.71875 3.179688 17.574219 2.441406 18.816406 2.152344 C 19.574219 1.976562 20.804688 2.382812 21.261719 3.023438 C 21.289062 3.058594 21.265625 3.105469 21.222656 3.109375 C 19.789062 3.179688 18.609375 3.679688 17.820312 4.863281 C 17.800781 4.894531 17.820312 4.941406 17.855469 4.945312 C 18.1875 5.007812 19.523438 5.070312 19.523438 5.070312 C 19.554688 5.070312 19.570312 5.109375 19.546875 5.132812 C 19.238281 5.410156 17.746094 6.523438 17.371094 7.457031 C 17.347656 7.507812 17.417969 7.546875 17.449219 7.503906 C 18.050781 6.707031 18.878906 6.253906 19.847656 5.949219 C 20.839844 5.640625 21.6875 5.796875 22.492188 6.433594 C 23.265625 7.042969 24.191406 8.792969 24.351562 9.207031 C 24.363281 9.238281 24.328125 9.269531 24.292969 9.257812 C 24.105469 9.171875 23.710938 8.960938 23.558594 8.851562 C 23.53125 8.832031 23.492188 8.863281 23.503906 8.894531 C 23.84375 9.746094 24.21875 10.476562 24.382812 11.25 C 24.554688 12.0625 24.359375 13.851562 24.289062 13.871094 C 24.25 13.882812 23.214844 12 22.363281 11.269531 C 22.34375 11.257812 22.320312 11.269531 22.320312 11.289062 C 22.328125 11.53125 22.296875 11.933594 22.265625 12.039062 C 22.265625 12.046875 22.253906 12.050781 22.246094 12.046875 C 22.074219 11.917969 20.71875 10.597656 19.863281 10.265625 C 18.976562 9.917969 18.144531 10.199219 17.296875 10.394531 C 17.242188 10.410156 17.238281 10.492188 17.296875 10.507812 C 17.605469 10.585938 17.914062 10.628906 18.234375 10.703125 C 19.007812 10.886719 19.84375 11.082031 20.464844 11.53125 C 21.324219 12.15625 22.03125 13.003906 22.75 13.800781 C 23.039062 14.125 23.398438 15.085938 23.449219 15.359375 C 23.457031 15.386719 23.429688 15.414062 23.398438 15.402344 C 23.230469 15.332031 22.820312 15.109375 22.640625 14.96875 C 22.628906 14.957031 22.613281 14.96875 22.613281 14.984375 C 22.738281 17.164062 22.367188 19.113281 21.054688 20.832031 C 21.03125 20.859375 20.984375 20.847656 20.984375 20.808594 C 20.949219 19.753906 20.84375 18.714844 20.339844 17.691406 C 20.324219 17.65625 20.273438 17.660156 20.261719 17.695312 C 20.128906 18.003906 20.019531 18.261719 19.914062 18.511719 C 19.898438 18.542969 19.847656 18.539062 19.84375 18.5 C 19.785156 18.074219 19.601562 16.734375 19.53125 16.179688 C 19.476562 15.761719 19.265625 15.363281 19.113281 14.957031 C 19.101562 14.933594 19.070312 14.929688 19.058594 14.949219 C 18.925781 15.140625 18.699219 15.414062 18.601562 15.535156 C 18.585938 15.554688 18.554688 15.554688 18.542969 15.53125 C 18.355469 15.167969 17.257812 12.957031 16.976562 12.425781 C 16.925781 12.332031 16.890625 12.230469 16.855469 12.128906 C 16.753906 11.839844 16.484375 11.628906 16.167969 11.613281 C 15.785156 11.59375 15.464844 11.851562 15.378906 12.199219 C 15.320312 12.449219 15.242188 12.695312 15.121094 12.925781 C 14.765625 13.59375 13.960938 14.90625 13.722656 15.285156 C 13.695312 15.332031 13.628906 15.324219 13.609375 15.277344 C 13.503906 15.019531 13.394531 14.75 13.242188 14.375 C 13.046875 14.71875 12.871094 14.984375 12.746094 15.265625 C 12.132812 16.625 12.472656 17.992188 12.695312 19.410156 C 12.335938 19.640625 12.191406 19.277344 12.058594 19.054688 C 11.605469 18.292969 11.289062 17.488281 11.140625 16.597656 C 10.742188 14.132812 11.300781 12.035156 13.304688 10.429688 C 13.316406 10.421875 13.300781 10.378906 13.296875 10.332031 C 11.730469 10.355469 11.246094 11.710938 10.472656 12.699219 C 10.402344 12.671875 10.402344 12.671875 10.332031 12.644531 C 10.355469 12.300781 10.375 11.957031 10.402344 11.496094 C 10.21875 11.699219 10.113281 11.804688 10.019531 11.917969 C 9.15625 12.914062 8.808594 14.113281 8.652344 15.390625 C 8.605469 15.78125 8.550781 16.175781 8.476562 16.5625 C 8.460938 16.65625 8.34375 16.730469 8.273438 16.8125 C 8.21875 16.734375 8.136719 16.660156 8.117188 16.574219 C 8.050781 16.246094 8.015625 15.914062 7.945312 15.585938 C 7.835938 15.035156 7.6875 14.492188 7.589844 13.941406 C 7.414062 12.921875 7.648438 11.980469 8.222656 11.132812 Z M 8.222656 11.132812 "/>
</g>
</svg>
