<?xml version="1.0" encoding="UTF-8"?>
<svg xmlns="http://www.w3.org/2000/svg" xmlns:xlink="http://www.w3.org/1999/xlink" width="16px" height="16px" viewBox="0 0 16 16" version="1.1">
<g id="surface1">
<path style=" stroke:none;fill-rule:nonzero;fill:rgb(51.372552%,32.941177%,26.666668%);fill-opacity:1;" d="M 6.535156 14.832031 C 6.683594 14.660156 7.140625 14.097656 7.324219 13.558594 C 7.445312 13.207031 7.539062 12.835938 7.609375 12.464844 C 7.859375 11.089844 7.925781 9.585938 7.8125 7.726562 C 7.800781 7.550781 7.785156 7.382812 7.769531 7.238281 L 7.761719 7.183594 C 7.757812 7.171875 7.757812 7.160156 7.757812 7.148438 L 7.757812 7.144531 C 7.753906 7.132812 7.753906 7.125 7.753906 7.113281 C 7.746094 7.054688 7.75 7 7.769531 6.949219 C 7.820312 6.824219 7.9375 6.746094 8.0625 6.746094 C 8.070312 6.746094 8.074219 6.746094 8.082031 6.746094 C 8.226562 6.753906 8.351562 6.867188 8.375 7.011719 L 8.402344 7.175781 C 8.4375 7.414062 8.476562 7.648438 8.515625 7.882812 C 8.65625 8.765625 8.792969 9.601562 8.902344 10.453125 C 9.054688 11.625 9.066406 12.648438 8.933594 13.578125 C 8.871094 14.007812 8.804688 14.480469 8.492188 14.824219 C 8.355469 14.96875 8.089844 14.96875 8.003906 14.96875 C 7.683594 14.96875 7.339844 14.960938 6.886719 14.9375 C 6.78125 14.933594 6.671875 14.917969 6.5625 14.898438 C 6.527344 14.894531 6.515625 14.859375 6.535156 14.832031 Z M 6.535156 14.832031 "/>
<path style=" stroke:none;fill-rule:nonzero;fill:rgb(47.058824%,75.294119%,26.274511%);fill-opacity:1;" d="M 4.113281 5.566406 C 4.210938 5.417969 4.332031 5.289062 4.492188 5.089844 C 4.21875 5.105469 4.019531 5.121094 3.773438 5.136719 C 3.945312 4.742188 4.265625 4.542969 4.566406 4.34375 C 5.4375 3.765625 6.3125 3.679688 7.183594 4.296875 C 7.214844 4.320312 7.257812 4.285156 7.242188 4.25 C 6.996094 3.789062 6.625 3.472656 6.136719 3.308594 C 5.757812 3.179688 4.917969 3.269531 4.738281 3.28125 C 4.722656 3.28125 4.710938 3.269531 4.710938 3.253906 C 4.71875 3.195312 4.96875 2.867188 5.085938 2.761719 C 5.386719 2.496094 5.730469 2.316406 6.207031 2.304688 C 6.109375 2.1875 6.058594 2.101562 5.988281 2.046875 C 5.914062 1.996094 5.714844 1.875 5.628906 1.808594 C 5.605469 1.792969 5.613281 1.761719 5.636719 1.753906 C 5.792969 1.710938 6.230469 1.613281 6.421875 1.644531 C 6.777344 1.703125 7.09375 1.992188 7.296875 2.28125 C 7.4375 2.476562 7.644531 3.15625 7.683594 3.261719 C 7.691406 3.289062 7.730469 3.289062 7.738281 3.261719 C 7.871094 2.859375 7.96875 2.5 8.113281 2.164062 C 8.359375 1.589844 8.785156 1.21875 9.40625 1.074219 C 9.785156 0.988281 10.402344 1.191406 10.632812 1.511719 C 10.644531 1.527344 10.632812 1.554688 10.609375 1.554688 C 9.894531 1.589844 9.304688 1.839844 8.910156 2.433594 C 8.902344 2.449219 8.910156 2.46875 8.929688 2.472656 C 9.09375 2.503906 9.761719 2.535156 9.761719 2.535156 C 9.777344 2.535156 9.785156 2.554688 9.773438 2.566406 C 9.621094 2.703125 8.871094 3.261719 8.683594 3.730469 C 8.675781 3.753906 8.710938 3.773438 8.726562 3.753906 C 9.027344 3.355469 9.4375 3.125 9.921875 2.976562 C 10.417969 2.820312 10.84375 2.898438 11.246094 3.21875 C 11.632812 3.519531 12.09375 4.394531 12.175781 4.601562 C 12.179688 4.621094 12.164062 4.636719 12.148438 4.628906 C 12.054688 4.585938 11.855469 4.480469 11.78125 4.425781 C 11.765625 4.417969 11.746094 4.429688 11.753906 4.449219 C 11.921875 4.871094 12.109375 5.238281 12.191406 5.625 C 12.277344 6.03125 12.179688 6.925781 12.144531 6.933594 C 12.125 6.941406 11.605469 6 11.179688 5.636719 C 11.171875 5.628906 11.160156 5.632812 11.160156 5.644531 C 11.164062 5.765625 11.148438 5.964844 11.132812 6.019531 C 11.132812 6.023438 11.128906 6.027344 11.125 6.023438 C 11.039062 5.960938 10.359375 5.300781 9.933594 5.132812 C 9.488281 4.960938 9.070312 5.097656 8.648438 5.199219 C 8.621094 5.203125 8.621094 5.246094 8.648438 5.253906 C 8.804688 5.292969 8.957031 5.3125 9.117188 5.351562 C 9.503906 5.445312 9.921875 5.542969 10.230469 5.765625 C 10.660156 6.078125 11.015625 6.5 11.375 6.902344 C 11.519531 7.0625 11.699219 7.542969 11.726562 7.679688 C 11.726562 7.695312 11.714844 7.707031 11.699219 7.699219 C 11.613281 7.664062 11.410156 7.554688 11.320312 7.484375 C 11.316406 7.480469 11.304688 7.484375 11.304688 7.492188 C 11.367188 8.582031 11.183594 9.554688 10.527344 10.417969 C 10.515625 10.429688 10.492188 10.421875 10.492188 10.40625 C 10.476562 9.875 10.421875 9.355469 10.171875 8.847656 C 10.160156 8.828125 10.136719 8.832031 10.128906 8.847656 C 10.066406 9 10.011719 9.128906 9.957031 9.253906 C 9.949219 9.273438 9.925781 9.269531 9.921875 9.25 C 9.894531 9.039062 9.800781 8.367188 9.765625 8.089844 C 9.738281 7.878906 9.632812 7.679688 9.554688 7.476562 C 9.550781 7.464844 9.535156 7.464844 9.527344 7.472656 C 9.460938 7.570312 9.351562 7.707031 9.300781 7.769531 C 9.292969 7.777344 9.277344 7.777344 9.269531 7.765625 C 9.175781 7.582031 8.628906 6.480469 8.488281 6.214844 C 8.460938 6.167969 8.445312 6.117188 8.425781 6.066406 C 8.375 5.917969 8.242188 5.8125 8.082031 5.804688 C 7.894531 5.796875 7.730469 5.925781 7.691406 6.101562 C 7.660156 6.226562 7.621094 6.347656 7.5625 6.460938 C 7.382812 6.796875 6.980469 7.453125 6.863281 7.644531 C 6.847656 7.664062 6.816406 7.664062 6.804688 7.640625 C 6.753906 7.511719 6.695312 7.375 6.621094 7.1875 C 6.523438 7.359375 6.4375 7.492188 6.371094 7.632812 C 6.066406 8.3125 6.234375 8.996094 6.347656 9.703125 C 6.167969 9.820312 6.09375 9.636719 6.027344 9.527344 C 5.804688 9.144531 5.644531 8.746094 5.570312 8.296875 C 5.371094 7.066406 5.652344 6.019531 6.652344 5.214844 C 6.660156 5.210938 6.652344 5.191406 6.648438 5.167969 C 5.863281 5.175781 5.625 5.855469 5.234375 6.347656 C 5.199219 6.335938 5.203125 6.335938 5.167969 6.324219 C 5.175781 6.148438 5.1875 5.980469 5.203125 5.746094 C 5.109375 5.847656 5.058594 5.902344 5.007812 5.957031 C 4.578125 6.457031 4.402344 7.054688 4.324219 7.695312 C 4.300781 7.890625 4.277344 8.085938 4.238281 8.28125 C 4.230469 8.328125 4.171875 8.363281 4.136719 8.40625 C 4.109375 8.367188 4.066406 8.328125 4.058594 8.285156 C 4.023438 8.125 4.007812 7.957031 3.972656 7.792969 C 3.917969 7.519531 3.84375 7.246094 3.796875 6.96875 C 3.707031 6.460938 3.824219 5.992188 4.113281 5.566406 Z M 4.113281 5.566406 "/>
</g>
</svg>
